# xmcd
#
# Track frame offsets: 
#        150
#        11765
#        28385
#        41080
#        55392
#        83757
#        103107
#        118202
#        137667
#        159340
#        180170
#        205505
#        252032
#        270555
#        287160
#        300905
#        318265
#        336785
#
# Disc length: 4793 seconds
#
# Revision: 8
# Processed by: cddbd v1.5.2PL0 Copyright (c) Steve Scherf et al.
# Submitted via: ExactAudioCopy v0.99pb1
#
DISCID=f212b712
DTITLE=Stevie Ray Vaughan And Double Trouble - Rare and Unissued Tracks 
DTITLE=(Vol.1)
DYEAR=2000
DGENRE=Blues
TTITLE0=Thunderbird [Paul Ray and The Cobras (featuring Stevie Ray Vaugh
TTITLE0=an) - 1977]
TTITLE1=I'm Cryin' [1979]
TTITLE2=You're Gonna Miss Me Baby [1979]
TTITLE3=They Call Me Guitar Hurricane (Live) [1980]
TTITLE4=All Your Love I Miss Loving (Live) [1980]
TTITLE5=Come On (Pt. III) [1981]
TTITLE6=Letter To My Girlfriend [1981]
TTITLE7=Lenny (KUT-FM Radio Performance) [1981]
TTITLE8=Don't Lose Your Cool (Live) [1981]
TTITLE9=Crosscut Saw (Live) [1981]
TTITLE10=Manic Depression (Live) [1981]
TTITLE11=Texas Flood (Live) [1982]
TTITLE12=Collins' Shuffle (Live) [1982]
TTITLE13=Pride And Joy [1982]
TTITLE14=Love Struck Baby (Live) [1983]
TTITLE15=Hug You, Squeeze You (Live)  [1983]
TTITLE16=Don't Stop By The Creek, Son [Johnny Copeland (with Stevie Ra
TTITLE16=y Vaughan) - 1982]
TTITLE17=Ask Me No Questions [Albert King (with Stevie Ray Vaughan) - 1
TTITLE17=983]
EXTD=YEAR: 2000
EXTT0=
EXTT1=
EXTT2=
EXTT3=
EXTT4=
EXTT5=
EXTT6=
EXTT7=
EXTT8=
EXTT9=
EXTT10=
EXTT11=
EXTT12=
EXTT13=
EXTT14=
EXTT15=
EXTT16=
EXTT17=
PLAYORDER=
